Coordinates
version=1
nRows=11
nColumns=40
inDegrees=yes

Units are S.I. units (second, meters, Newtons, ...)
If the header above contains a line with 'inDegrees', this indicates whether rotational values are in degrees (yes) or radians (no).

endheader
time	pelvis_tilt	pelvis_list	pelvis_rotation	pelvis_tx	pelvis_ty	pelvis_tz	hip_flexion_r	hip_adduction_r	hip_rotation_r	knee_angle_r	knee_angle_r_beta	ankle_angle_r	subtalar_angle_r	mtp_angle_r	hip_flexion_l	hip_adduction_l	hip_rotation_l	knee_angle_l	knee_angle_l_beta	ankle_angle_l	subtalar_angle_l	mtp_angle_l	lumbar_extension	lumbar_bending	lumbar_rotation	arm_flex_r	arm_add_r	arm_rot_r	elbow_flex_r	pro_sup_r	wrist_flex_r	wrist_dev_r	arm_flex_l	arm_add_l	arm_rot_l	elbow_flex_l	pro_sup_l	wrist_flex_l	wrist_dev_l
      0.96000000	     18.89743916	      3.98221640	      3.06701634	      1.39315091	      0.98210268	     -0.38299351	      2.35743118	     -6.85416931	     -5.60525813	     35.82328856	      0.62523433	     -3.95877541	      0.00000000	      0.00000000	    -28.43009699	      6.36291712	      5.61623588	      3.50000106	      0.06108654	     -9.20791173	      0.00000000	      0.00000000	    -33.27928152	     -1.42682756	     -9.29907656	      2.09902252	    -17.53789317	     12.61327896	     42.46976620	     78.60811705	      0.00000000	      0.00000000	      9.60682375	    -25.89214437	     27.45612234	     50.50520003	     77.56889162	      0.00000000	      0.00000000
      0.96400000	     18.69833648	      4.10628897	      3.03479255	      1.39808740	      0.98118335	     -0.38319192	      2.97751418	     -7.01685849	     -5.93510366	     35.01832823	      0.61118513	     -4.14311662	      0.00000000	      0.00000000	    -28.62037191	      6.53183683	      5.42975354	      3.39368403	      0.05923096	     -9.09362657	      0.00000000	      0.00000000	    -33.11723781	     -1.52699406	     -9.42572713	      2.10629726	    -17.57092952	     12.59146846	     42.48439904	     78.60404604	      0.00000000	      0.00000000	      9.78826131	    -25.96024786	     27.48550830	     50.60411941	     77.58604768	      0.00000000	      0.00000000
      0.96800000	     18.47271380	      4.19272400	      3.08430878	      1.40285171	      0.98024685	     -0.38328218	      3.59773641	     -7.09223148	     -6.06344613	     34.16505700	      0.59629273	     -4.56917887	      0.00000000	      0.00000000	    -28.74648727	      6.61344827	      5.34931468	      3.31342505	      0.05783018	     -9.00566528	      0.00000000	      0.00000000	    -32.96076261	     -1.56347603	     -9.57798728	      2.11313465	    -17.56923358	     12.57706914	     42.47019843	     78.58424227	      0.00000000	      0.00000000	     10.02288702	    -26.03465074	     27.53058814	     50.62198115	     77.60611926	      0.00000000	      0.00000000
      0.97200000	     18.33432833	      4.22409215	      3.15254726	      1.40770487	      0.97945779	     -0.38345545	      4.07410857	     -7.11131294	     -6.43168996	     33.20132314	      0.57947240	     -5.06429437	      0.00000000	      0.00000000	    -28.94098005	      6.61652332	      5.29144419	      3.30643363	      0.05770815	     -8.86045580	      0.00000000	      0.00000000	    -32.87821565	     -1.53700049	     -9.73365485	      2.14440967	    -17.55068256	     12.47675819	     42.41761217	     78.52376937	      0.00000000	      0.00000000	     10.26540824	    -26.14199683	     27.65141445	     50.67988830	     77.64755741	      0.00000000	      0.00000000
      0.97600000	     18.10233840	      4.34528296	      3.18778584	      1.41255251	      0.97834355	     -0.38358273	      4.70934714	     -7.23958633	     -6.73695720	     32.39495559	      0.56539864	     -5.40357987	      0.00000000	      0.00000000	    -29.03673716	      6.74754340	      5.13390935	      3.28924499	      0.05740815	     -8.68524903	      0.00000000	      0.00000000	    -32.69045667	     -1.62028133	     -9.91768965	      2.16572814	    -17.49931940	     12.36804596	     42.38226315	     78.50281334	      0.00000000	      0.00000000	     10.43874243	    -26.26205707	     27.71978725	     50.83137995	     77.61533237	      0.00000000	      0.00000000
      0.98000000	     17.89994408	      4.42941915	      3.17866008	      1.41748776	      0.97728736	     -0.38368541	      5.29672768	     -7.31920790	     -7.02349527	     31.54997340	      0.55065091	     -5.73137299	      0.00000000	      0.00000000	    -29.13463666	      6.85679906	      4.97414607	      3.35600321	      0.05857331	     -8.46191510	      0.00000000	      0.00000000	    -32.52762269	     -1.68184795	    -10.03480225	      2.18182289	    -17.49935966	     12.34355134	     42.35311543	     78.53832857	      0.00000000	      0.00000000	     10.62770877	    -26.33442211	     27.72518447	     50.87440911	     77.62235425	      0.00000000	      0.00000000
      0.98400000	     17.66348383	      4.55369352	      3.11791806	      1.42253525	      0.97607601	     -0.38381109	      5.98346324	     -7.47062766	     -7.35031332	     30.87748036	      0.53891370	     -5.76270121	      0.00000000	      0.00000000	    -29.22132940	      7.03275842	      4.77580564	      3.37425063	      0.05889178	     -8.30633857	      0.00000000	      0.00000000	    -32.32350620	     -1.79654219	    -10.12316935	      2.18283274	    -17.51847294	     12.30863989	     42.33556267	     78.53791119	      0.00000000	      0.00000000	     10.77908760	    -26.39573102	     27.72212508	     50.97208136	     77.62656267	      0.00000000	      0.00000000
      0.98800000	     17.46203003	      4.60018146	      3.03240251	      1.42709214	      0.97484395	     -0.38370511	      6.72859102	     -7.50593556	     -7.60739929	     30.33979785	      0.52952937	     -5.78439766	      0.00000000	      0.00000000	    -29.29359416	      7.11558543	      4.68699491	      3.42878562	      0.05984360	     -8.20487905	      0.00000000	      0.00000000	    -32.21418044	     -1.85910143	    -10.21477706	      2.30196658	    -17.48745869	     12.25874524	     42.35769949	     78.53368487	      0.00000000	      0.00000000	     10.99809789	    -26.49608801	     27.68751047	     51.03761047	     77.62754356	      0.00000000	      0.00000000
      0.99200000	     17.25393923	      4.64694660	      3.18755106	      1.43222566	      0.97386764	     -0.38380544	      7.06778821	     -7.47731313	     -7.94579899	     29.03804589	      0.50680951	     -6.76550917	      0.00000000	      0.00000000	    -29.33689752	      7.10081622	      4.68663304	      3.64410354	      0.06360160	     -7.79369350	      0.00000000	      0.00000000	    -32.02010200	     -1.82632046	    -10.42945325	      2.30960119	    -17.35018608	     12.01790843	     42.10195560	     78.52241680	      0.00000000	      0.00000000	     11.16350464	    -26.54759661	     27.74765817	     51.01935211	     77.68335656	      0.00000000	      0.00000000
      0.99600000	     17.05191858	      4.65357388	      3.20625191	      1.43707326	      0.97265255	     -0.38364057	      7.59723955	     -7.41115314	     -8.18451844	     28.10993498	      0.49061092	     -7.23103805	      0.00000000	      0.00000000	    -29.38383880	      7.10647794	      4.49474353	      3.80105624	      0.06634095	     -7.48188978	      0.00000000	      0.00000000	    -31.86631103	     -1.82193289	    -10.49094236	      2.32544669	    -17.29931670	     11.88765509	     42.03188312	     78.50801007	      0.00000000	      0.00000000	     11.37328404	    -26.67476077	     27.88755907	     51.10295071	     77.69577969	      0.00000000	      0.00000000
      1.00000000	     16.82022924	      4.78373099	      3.15533929	      1.44212375	      0.97131379	     -0.38379110	      8.21992449	     -7.53729916	     -8.45031948	     27.36415586	      0.47759462	     -7.45381355	      0.00000000	      0.00000000	    -29.41277867	      7.28374413	      4.31772031	      3.95561079	      0.06903843	     -7.24096428	      0.00000000	      0.00000000	    -31.67162104	     -1.92945632	    -10.60275107	      2.33952272	    -17.29976590	     11.85940162	     42.00956063	     78.49771303	      0.00000000	      0.00000000	     11.53785064	    -26.66509411	     27.81046123	     51.07931799	     77.69830830	      0.00000000	      0.00000000
